<?xml version="1.0"?>
<svg xmlns="http://www.w3.org/2000/svg" xmlns:xlink="http://www.w3.org/1999/xlink" version="1.1" id="Capa_1" x="0px" y="0px" viewBox="0 0 491.016 491.016" style="enable-background:new 0 0 491.016 491.016;" xml:space="preserve" width="512px" height="512px"><g><g>
	<path d="M76.912,408.374c-1.7-0.36-3.188-1.383-4.135-2.841c-0.947-1.458-1.275-3.232-0.914-4.933l15.27-71.806l-16.391-39.32   l-23.06,108.473c-3.252,15.3,6.513,30.339,21.813,33.592l66.353,14.107l-11.324-27.16L76.912,408.374z" data-original="#000000" class="active-path" data-old_color="#000000" fill="#5E72E4"/>
	<path d="M356.756,461.157c-0.363,1.701-1.388,3.19-2.845,4.137c-1.458,0.945-3.231,1.276-4.934,0.913L291.09,453.9l-39.322,16.39   l94.563,20.11c7.351,1.559,15.019,0.134,21.316-3.955c6.304-4.092,10.716-10.513,12.276-17.866l12.065-56.744l-27.156,11.324   L356.756,461.157z" data-original="#000000" class="active-path" data-old_color="#000000" fill="#5E72E4"/>
	<path d="M430.524,82.648c3.54,0.752,5.8,4.232,5.048,7.772l-24.059,113.195l16.391,39.332L459.76,93.067   c3.252-15.299-6.514-30.338-21.813-33.591L217.988,12.709l125.723,51.48L430.524,82.648z" data-original="#000000" class="active-path" data-old_color="#000000" fill="#5E72E4"/>
	<path d="M150.688,29.863c0.359-1.701,1.38-3.191,2.839-4.139c1.458-0.949,3.233-1.279,4.934-0.918l5.246,1.114l35.129-14.645   l4.184-1.746l-41.908-8.91c-7.348-1.563-15.015-0.142-21.315,3.95c-6.3,4.091-10.716,10.518-12.278,17.865l-4.331,20.38   l27.156-11.324L150.688,29.863z" data-original="#000000" class="active-path" data-old_color="#000000" fill="#5E72E4"/>
	<path d="M339.907,84.531L206.646,29.969L57.041,92.326c-21.844,9.117-32.222,34.301-23.096,56.177l122.214,293.166   c9.101,21.852,34.309,32.23,56.162,23.121l204.119-85.091c21.843-9.109,32.222-34.31,23.098-56.17L339.907,84.531z    M406.306,355.396l-204.122,85.083c-8.446,3.53-18.226-0.465-21.748-8.936L58.223,138.369c-3.53-8.472,0.504-18.22,8.952-21.75   L206.74,58.448l1.355,0.552l21.19,50.819c6.328,15.2,23.759,22.381,38.944,16.045l51.111-21.308l0.489,0.196l95.421,228.903   C418.788,342.126,414.769,351.867,406.306,355.396z" data-original="#000000" class="active-path" data-old_color="#000000" fill="#5E72E4"/>
</g></g> </svg>
